<?xml version="1.0" encoding="utf-8"?>
<svg width="522" height="188" viewBox="0 0 522 188" xmlns="http://www.w3.org/2000/svg">
<rect id="frame" x="0" y="0" width="522" height="188" fill="#f7f7f7" stroke="none" stroke-width="0"/>

<!-- Association RENT -->
<g class="page_0_Uj7l0n68 diagram_page" visibility="visible">
	<line x1="43" y1="94" x2="148" y2="94" stroke="#7fbc41" stroke-width="2"/>
	<text x="82" y="111" fill="#c51b7d" font-family="Verdana" font-size="12">0,N</text>
	<line x1="263" y1="94" x2="148" y2="94" stroke="#7fbc41" stroke-width="2"/>
	<text x="192" y="111" fill="#c51b7d" font-family="Verdana" font-size="12">0,N</text>
	<g>
		<path d="M173 60 a14 14 90 0 1 14 14 V85 h-78 V74 a14 14 90 0 1 14 -14" fill="#b8e186" stroke="#b8e186" stroke-width="0"/>
		<path d="M187 85 v29 a14 14 90 0 1 -14 14 H123 a14 14 90 0 1 -14 -14 V85 H78" fill="#e6f5d0" stroke="#e6f5d0" stroke-width="0"/>
		<rect x="109" y="60" width="78" height="68" fill="none" rx="14" stroke="#7fbc41" stroke-width="2"/>
		<line x1="109" y1="85" x2="187" y2="85" stroke="#7fbc41" stroke-width="1"/>
		<text x="132" y="77.75" fill="#000" font-family="Verdana" font-size="12">RENT</text>
		<text x="116" y="102.8" fill="#000" font-family="Verdana" font-size="12">date_start</text>
		<text x="116" y="119.8" fill="#000" font-family="Verdana" font-size="12">date_end</text>
	</g>
</g>

<!-- Association HAS -->
<g class="page_0_Uj7l0n68 diagram_page" visibility="visible">
	<line x1="462" y1="94" x2="359" y2="94" stroke="#7fbc41" stroke-width="2"/>
	<text x="384" y="111" fill="#c51b7d" font-family="Verdana" font-size="12">0,N</text>
	<line x1="263" y1="94" x2="359" y2="94" stroke="#7fbc41" stroke-width="2"/>
	<text x="312" y="111" fill="#c51b7d" font-family="Verdana" font-size="12">1,1</text>
	<g>
		<path d="M365 69 a14 14 90 0 1 14 14 V94 h-40 V83 a14 14 90 0 1 14 -14" fill="#b8e186" stroke="#b8e186" stroke-width="0"/>
		<path d="M379 94 v11 a14 14 90 0 1 -14 14 H353 a14 14 90 0 1 -14 -14 V94 H40" fill="#e6f5d0" stroke="#e6f5d0" stroke-width="0"/>
		<rect x="339" y="69" width="40" height="50" fill="none" rx="14" stroke="#7fbc41" stroke-width="2"/>
		<line x1="339" y1="94" x2="379" y2="94" stroke="#7fbc41" stroke-width="1"/>
		<text x="346" y="86.75" fill="#000" font-family="Verdana" font-size="12">HAS</text>
	</g>
</g>

<!-- Entity USER -->
<g class="page_0_Uj7l0n68 diagram_page" visibility="visible">
	<g>
		<rect x="9" y="43" width="68" height="25" fill="#f1b6da" stroke="#f1b6da" stroke-width="0" opacity="1"/>
		<rect x="9" y="68" width="68" height="77" fill="#fde0ef" stroke="#fde0ef" stroke-width="0" opacity="1"/>
		<rect x="9" y="43" width="68" height="102" fill="none" stroke="#de77ae" stroke-width="2" opacity="1"/>
		<line x1="9" y1="68" x2="77" y2="68" stroke="#de77ae" stroke-width="1"/>
	</g>
	<text x="26" y="60.75" fill="#000" font-family="Verdana" font-size="12">USER</text>
	<text x="14" y="85.8" fill="#000" font-family="Verdana" font-size="12">email</text>
	<line x1="14" y1="88" x2="48" y2="88" stroke="#000" stroke-width="1"/>
	<text x="14" y="102.8" fill="#000" font-family="Verdana" font-size="12">password</text>
	<text x="14" y="119.8" fill="#000" font-family="Verdana" font-size="12">firstname</text>
	<text x="14" y="136.8" fill="#000" font-family="Verdana" font-size="12">lastname</text>
</g>

<!-- Entity CAR -->
<g class="page_0_Uj7l0n68 diagram_page" visibility="visible">
	<g>
		<rect x="219" y="9" width="88" height="25" fill="#f1b6da" stroke="#f1b6da" stroke-width="0" opacity="1"/>
		<rect x="219" y="34" width="88" height="145" fill="#fde0ef" stroke="#fde0ef" stroke-width="0" opacity="1"/>
		<rect x="219" y="9" width="88" height="170" fill="none" stroke="#de77ae" stroke-width="2" opacity="1"/>
		<line x1="219" y1="34" x2="307" y2="34" stroke="#de77ae" stroke-width="1"/>
	</g>
	<text x="250" y="26.75" fill="#000" font-family="Verdana" font-size="12">CAR</text>
	<text x="224" y="51.8" fill="#000" font-family="Verdana" font-size="12">code_car</text>
	<line x1="224" y1="54" x2="279" y2="54" stroke="#000" stroke-width="1"/>
	<text x="224" y="68.8" fill="#000" font-family="Verdana" font-size="12">brand</text>
	<text x="224" y="85.8" fill="#000" font-family="Verdana" font-size="12">model</text>
	<text x="224" y="102.8" fill="#000" font-family="Verdana" font-size="12">power</text>
	<text x="224" y="119.8" fill="#000" font-family="Verdana" font-size="12">zero_to_100</text>
	<text x="224" y="136.8" fill="#000" font-family="Verdana" font-size="12">max_speed</text>
	<text x="224" y="153.8" fill="#000" font-family="Verdana" font-size="12">eco_class</text>
	<text x="224" y="170.8" fill="#000" font-family="Verdana" font-size="12">price</text>
</g>

<!-- Entity AGENCY -->
<g class="page_0_Uj7l0n68 diagram_page" visibility="visible">
	<g>
		<rect x="411" y="52" width="102" height="25" fill="#f1b6da" stroke="#f1b6da" stroke-width="0" opacity="1"/>
		<rect x="411" y="77" width="102" height="59" fill="#fde0ef" stroke="#fde0ef" stroke-width="0" opacity="1"/>
		<rect x="411" y="52" width="102" height="84" fill="none" stroke="#de77ae" stroke-width="2" opacity="1"/>
		<line x1="411" y1="77" x2="513" y2="77" stroke="#de77ae" stroke-width="1"/>
	</g>
	<text x="437" y="69.75" fill="#000" font-family="Verdana" font-size="12">AGENCY</text>
	<text x="416" y="94.8" fill="#000" font-family="Verdana" font-size="12">email</text>
	<line x1="416" y1="97" x2="450" y2="97" stroke="#000" stroke-width="1"/>
	<text x="416" y="111.8" fill="#000" font-family="Verdana" font-size="12">address</text>
	<text x="416" y="128.8" fill="#000" font-family="Verdana" font-size="12">phone_number</text>
</g>
</svg>